<mxfile host="app.diagrams.net" agent="Mozilla/5.0 (Windows NT 10.0; Win64; x64) AppleWebKit/537.36 (KHTML, like Gecko) Chrome/128.0.0.0 Safari/537.36" version="24.7.13">
  <diagram name="第 1 页" id="Xgn7JFJzemk7u9-qeJvL">
    <mxGraphModel dx="501" dy="238" grid="0" gridSize="10" guides="1" tooltips="1" connect="1" arrows="1" fold="1" page="1" pageScale="1" pageWidth="1169" pageHeight="827" math="0" shadow="0">
      <root>
        <mxCell id="0" />
        <mxCell id="1" parent="0" />
        <mxCell id="NQQZQObjNg2_o2cvGMOL-75" value="" style="rounded=0;whiteSpace=wrap;html=1;dashed=1;movable=1;resizable=1;rotatable=1;deletable=1;editable=1;locked=0;connectable=1;" vertex="1" parent="1">
          <mxGeometry x="204.5" y="520.5" width="202.5" height="14" as="geometry" />
        </mxCell>
        <mxCell id="NQQZQObjNg2_o2cvGMOL-72" value="" style="rounded=0;whiteSpace=wrap;html=1;dashed=1;movable=1;resizable=1;rotatable=1;deletable=1;editable=1;locked=0;connectable=1;" vertex="1" parent="1">
          <mxGeometry x="204" y="608" width="203.75" height="14" as="geometry" />
        </mxCell>
        <mxCell id="NQQZQObjNg2_o2cvGMOL-53" value="" style="edgeStyle=orthogonalEdgeStyle;rounded=0;orthogonalLoop=1;jettySize=auto;html=1;endSize=3;startSize=3;" edge="1" parent="1" source="NQQZQObjNg2_o2cvGMOL-46" target="NQQZQObjNg2_o2cvGMOL-52">
          <mxGeometry relative="1" as="geometry" />
        </mxCell>
        <mxCell id="NQQZQObjNg2_o2cvGMOL-46" value="" style="rounded=0;whiteSpace=wrap;html=1;dashed=1;movable=1;resizable=1;rotatable=1;deletable=1;editable=1;locked=0;connectable=1;" vertex="1" parent="1">
          <mxGeometry x="1025" y="553" width="78" height="39" as="geometry" />
        </mxCell>
        <mxCell id="NQQZQObjNg2_o2cvGMOL-51" value="" style="edgeStyle=orthogonalEdgeStyle;rounded=0;orthogonalLoop=1;jettySize=auto;html=1;endSize=3;startSize=3;" edge="1" parent="1" source="NQQZQObjNg2_o2cvGMOL-45" target="NQQZQObjNg2_o2cvGMOL-50">
          <mxGeometry relative="1" as="geometry" />
        </mxCell>
        <mxCell id="NQQZQObjNg2_o2cvGMOL-45" value="" style="rounded=0;whiteSpace=wrap;html=1;dashed=1;movable=1;resizable=1;rotatable=1;deletable=1;editable=1;locked=0;connectable=1;" vertex="1" parent="1">
          <mxGeometry x="983" y="553" width="26" height="39" as="geometry" />
        </mxCell>
        <mxCell id="NQQZQObjNg2_o2cvGMOL-2" value="&lt;font face=&quot;Times New Roman&quot;&gt;Encoder&lt;/font&gt;" style="rounded=1;whiteSpace=wrap;html=1;" vertex="1" parent="1">
          <mxGeometry x="205" y="575.5" width="202" height="19" as="geometry" />
        </mxCell>
        <mxCell id="NQQZQObjNg2_o2cvGMOL-20" value="&lt;font face=&quot;Times New Roman&quot;&gt;play music from 2005&amp;nbsp; by justin broadrick&lt;/font&gt;" style="text;html=1;align=center;verticalAlign=middle;whiteSpace=wrap;rounded=0;movable=1;resizable=1;rotatable=1;deletable=1;editable=1;locked=0;connectable=1;" vertex="1" parent="1">
          <mxGeometry x="203.68" y="607" width="204.63" height="15" as="geometry" />
        </mxCell>
        <mxCell id="NQQZQObjNg2_o2cvGMOL-22" value="(b) One-step method" style="text;html=1;align=center;verticalAlign=middle;whiteSpace=wrap;rounded=0;" vertex="1" parent="1">
          <mxGeometry x="666" y="597" width="125" height="12" as="geometry" />
        </mxCell>
        <mxCell id="NQQZQObjNg2_o2cvGMOL-27" value="&lt;font face=&quot;Times New Roman&quot;&gt;O&amp;nbsp; &amp;nbsp; &amp;nbsp; O&amp;nbsp; &amp;nbsp; &amp;nbsp; &amp;nbsp; O&amp;nbsp; &amp;nbsp;B-year O B-artist I-artist&amp;nbsp;&lt;/font&gt;" style="text;html=1;align=left;verticalAlign=middle;whiteSpace=wrap;rounded=0;" vertex="1" parent="1">
          <mxGeometry x="204.5" y="521.5" width="201.5" height="10" as="geometry" />
        </mxCell>
        <mxCell id="NQQZQObjNg2_o2cvGMOL-28" value="&lt;font face=&quot;Times New Roman&quot;&gt;play music from 2005 by justin broadrick&lt;/font&gt;" style="text;html=1;align=center;verticalAlign=middle;whiteSpace=wrap;rounded=0;movable=0;resizable=0;rotatable=0;deletable=0;editable=0;locked=1;connectable=0;" vertex="1" parent="1">
          <mxGeometry x="631" y="549.5" width="203" height="16" as="geometry" />
        </mxCell>
        <mxCell id="NQQZQObjNg2_o2cvGMOL-30" value="(c) Two-step method" style="text;html=1;align=center;verticalAlign=middle;whiteSpace=wrap;rounded=0;" vertex="1" parent="1">
          <mxGeometry x="907" y="597" width="125" height="12" as="geometry" />
        </mxCell>
        <mxCell id="NQQZQObjNg2_o2cvGMOL-32" value="&lt;font face=&quot;Times New Roman&quot;&gt;O&amp;nbsp; &amp;nbsp; &amp;nbsp; O&amp;nbsp; &amp;nbsp; &amp;nbsp; &amp;nbsp;O&amp;nbsp; &amp;nbsp; &amp;nbsp; B&amp;nbsp; &amp;nbsp; O&amp;nbsp; &amp;nbsp; &amp;nbsp;O&amp;nbsp; &amp;nbsp; &amp;nbsp; &amp;nbsp; &amp;nbsp; O&amp;nbsp;&lt;/font&gt;" style="text;html=1;align=left;verticalAlign=middle;whiteSpace=wrap;rounded=0;" vertex="1" parent="1">
          <mxGeometry x="638" y="522" width="200" height="16" as="geometry" />
        </mxCell>
        <mxCell id="NQQZQObjNg2_o2cvGMOL-33" value="&lt;font face=&quot;Times New Roman&quot;&gt;O&amp;nbsp; &amp;nbsp; &amp;nbsp; O&amp;nbsp; &amp;nbsp; &amp;nbsp; &amp;nbsp;O&amp;nbsp; &amp;nbsp; &amp;nbsp; O&amp;nbsp; &amp;nbsp; O&amp;nbsp; &amp;nbsp; &amp;nbsp;B&amp;nbsp; &amp;nbsp; &amp;nbsp; &amp;nbsp; &amp;nbsp; &amp;nbsp;I&amp;nbsp;&lt;/font&gt;" style="text;html=1;align=left;verticalAlign=middle;whiteSpace=wrap;rounded=0;movable=0;resizable=0;rotatable=0;deletable=0;editable=0;locked=1;connectable=0;" vertex="1" parent="1">
          <mxGeometry x="638" y="579" width="192" height="12" as="geometry" />
        </mxCell>
        <mxCell id="NQQZQObjNg2_o2cvGMOL-36" value="&lt;font face=&quot;Times New Roman&quot;&gt;year&lt;/font&gt;" style="text;html=1;align=center;verticalAlign=middle;whiteSpace=wrap;rounded=0;" vertex="1" parent="1">
          <mxGeometry x="600" y="525" width="36" height="10" as="geometry" />
        </mxCell>
        <mxCell id="NQQZQObjNg2_o2cvGMOL-37" value="&lt;font face=&quot;Times New Roman&quot;&gt;artist&lt;/font&gt;" style="text;html=1;align=center;verticalAlign=middle;whiteSpace=wrap;rounded=0;" vertex="1" parent="1">
          <mxGeometry x="600" y="580" width="36" height="10" as="geometry" />
        </mxCell>
        <mxCell id="NQQZQObjNg2_o2cvGMOL-42" value="" style="endArrow=none;dashed=1;html=1;dashPattern=1 3;strokeWidth=2;rounded=0;" edge="1" parent="1">
          <mxGeometry width="50" height="50" relative="1" as="geometry">
            <mxPoint x="839" y="609" as="sourcePoint" />
            <mxPoint x="838" y="521" as="targetPoint" />
          </mxGeometry>
        </mxCell>
        <mxCell id="NQQZQObjNg2_o2cvGMOL-43" value="&lt;font face=&quot;Times New Roman&quot;&gt;play music from 2005 by justin broadrick&lt;/font&gt;" style="text;html=1;align=center;verticalAlign=middle;whiteSpace=wrap;rounded=0;movable=0;resizable=0;rotatable=0;deletable=0;editable=0;locked=1;connectable=0;" vertex="1" parent="1">
          <mxGeometry x="900" y="550.5" width="203" height="16" as="geometry" />
        </mxCell>
        <mxCell id="NQQZQObjNg2_o2cvGMOL-44" value="&lt;font face=&quot;Times New Roman&quot;&gt;O&amp;nbsp; &amp;nbsp; &amp;nbsp;O&amp;nbsp; &amp;nbsp; &amp;nbsp; &amp;nbsp; O&amp;nbsp; &amp;nbsp; &amp;nbsp; B&amp;nbsp; &amp;nbsp; O&amp;nbsp; &amp;nbsp; &amp;nbsp;B&amp;nbsp; &amp;nbsp; &amp;nbsp; &amp;nbsp; &amp;nbsp; I&amp;nbsp;&lt;/font&gt;" style="text;html=1;align=left;verticalAlign=middle;whiteSpace=wrap;rounded=0;movable=1;resizable=1;rotatable=1;deletable=1;editable=1;locked=0;connectable=1;" vertex="1" parent="1">
          <mxGeometry x="907" y="579" width="192" height="12" as="geometry" />
        </mxCell>
        <mxCell id="NQQZQObjNg2_o2cvGMOL-48" value="&lt;font face=&quot;Times New Roman&quot;&gt;Step 1&lt;br&gt;Slot Entity&lt;/font&gt;" style="text;html=1;align=center;verticalAlign=middle;whiteSpace=wrap;rounded=0;" vertex="1" parent="1">
          <mxGeometry x="850.5" y="574" width="57" height="22" as="geometry" />
        </mxCell>
        <mxCell id="NQQZQObjNg2_o2cvGMOL-49" value="&lt;font face=&quot;Times New Roman&quot;&gt;Step 2&lt;br&gt;Type Dectection&lt;/font&gt;" style="text;html=1;align=center;verticalAlign=middle;whiteSpace=wrap;rounded=0;" vertex="1" parent="1">
          <mxGeometry x="838" y="525" width="82" height="22" as="geometry" />
        </mxCell>
        <mxCell id="NQQZQObjNg2_o2cvGMOL-50" value="&lt;font face=&quot;Times New Roman&quot;&gt;year&lt;/font&gt;" style="rounded=0;whiteSpace=wrap;html=1;dashed=1;movable=1;resizable=1;rotatable=1;deletable=1;editable=1;locked=0;connectable=1;" vertex="1" parent="1">
          <mxGeometry x="983" y="526" width="26" height="12" as="geometry" />
        </mxCell>
        <mxCell id="NQQZQObjNg2_o2cvGMOL-52" value="artist" style="rounded=0;whiteSpace=wrap;html=1;dashed=1;movable=1;resizable=1;rotatable=1;deletable=1;editable=1;locked=0;connectable=1;" vertex="1" parent="1">
          <mxGeometry x="1025" y="526" width="78" height="12" as="geometry" />
        </mxCell>
        <mxCell id="NQQZQObjNg2_o2cvGMOL-54" value="" style="edgeStyle=orthogonalEdgeStyle;rounded=0;orthogonalLoop=1;jettySize=auto;html=1;endSize=3;" edge="1" parent="1">
          <mxGeometry relative="1" as="geometry">
            <mxPoint x="644" y="553" as="sourcePoint" />
            <mxPoint x="644" y="538" as="targetPoint" />
          </mxGeometry>
        </mxCell>
        <mxCell id="NQQZQObjNg2_o2cvGMOL-55" value="" style="edgeStyle=orthogonalEdgeStyle;rounded=0;orthogonalLoop=1;jettySize=auto;html=1;endSize=3;" edge="1" parent="1">
          <mxGeometry relative="1" as="geometry">
            <mxPoint x="671" y="553" as="sourcePoint" />
            <mxPoint x="671" y="538" as="targetPoint" />
          </mxGeometry>
        </mxCell>
        <mxCell id="NQQZQObjNg2_o2cvGMOL-56" value="" style="edgeStyle=orthogonalEdgeStyle;rounded=0;orthogonalLoop=1;jettySize=auto;html=1;endSize=3;" edge="1" parent="1">
          <mxGeometry relative="1" as="geometry">
            <mxPoint x="701" y="553" as="sourcePoint" />
            <mxPoint x="701" y="538" as="targetPoint" />
          </mxGeometry>
        </mxCell>
        <mxCell id="NQQZQObjNg2_o2cvGMOL-57" value="" style="edgeStyle=orthogonalEdgeStyle;rounded=0;orthogonalLoop=1;jettySize=auto;html=1;endSize=3;" edge="1" parent="1">
          <mxGeometry relative="1" as="geometry">
            <mxPoint x="726" y="553" as="sourcePoint" />
            <mxPoint x="726" y="538" as="targetPoint" />
          </mxGeometry>
        </mxCell>
        <mxCell id="NQQZQObjNg2_o2cvGMOL-58" value="" style="edgeStyle=orthogonalEdgeStyle;rounded=0;orthogonalLoop=1;jettySize=auto;html=1;endSize=3;" edge="1" parent="1">
          <mxGeometry relative="1" as="geometry">
            <mxPoint x="747" y="553" as="sourcePoint" />
            <mxPoint x="747" y="538" as="targetPoint" />
          </mxGeometry>
        </mxCell>
        <mxCell id="NQQZQObjNg2_o2cvGMOL-59" value="" style="edgeStyle=orthogonalEdgeStyle;rounded=0;orthogonalLoop=1;jettySize=auto;html=1;endSize=3;" edge="1" parent="1">
          <mxGeometry relative="1" as="geometry">
            <mxPoint x="771" y="553" as="sourcePoint" />
            <mxPoint x="771" y="538" as="targetPoint" />
          </mxGeometry>
        </mxCell>
        <mxCell id="NQQZQObjNg2_o2cvGMOL-60" value="" style="edgeStyle=orthogonalEdgeStyle;rounded=0;orthogonalLoop=1;jettySize=auto;html=1;endSize=3;" edge="1" parent="1">
          <mxGeometry relative="1" as="geometry">
            <mxPoint x="810" y="553" as="sourcePoint" />
            <mxPoint x="810" y="538" as="targetPoint" />
          </mxGeometry>
        </mxCell>
        <mxCell id="NQQZQObjNg2_o2cvGMOL-61" value="" style="edgeStyle=orthogonalEdgeStyle;rounded=0;orthogonalLoop=1;jettySize=auto;html=1;startArrow=classic;startFill=1;endArrow=none;endFill=0;endSize=6;startSize=3;" edge="1" parent="1">
          <mxGeometry relative="1" as="geometry">
            <mxPoint x="810" y="580.5" as="sourcePoint" />
            <mxPoint x="810" y="565.5" as="targetPoint" />
          </mxGeometry>
        </mxCell>
        <mxCell id="NQQZQObjNg2_o2cvGMOL-62" value="" style="edgeStyle=orthogonalEdgeStyle;rounded=0;orthogonalLoop=1;jettySize=auto;html=1;startArrow=classic;startFill=1;endArrow=none;endFill=0;endSize=6;startSize=3;" edge="1" parent="1">
          <mxGeometry relative="1" as="geometry">
            <mxPoint x="772" y="580.5" as="sourcePoint" />
            <mxPoint x="772" y="565.5" as="targetPoint" />
          </mxGeometry>
        </mxCell>
        <mxCell id="NQQZQObjNg2_o2cvGMOL-63" value="" style="edgeStyle=orthogonalEdgeStyle;rounded=0;orthogonalLoop=1;jettySize=auto;html=1;startArrow=classic;startFill=1;endArrow=none;endFill=0;endSize=3;startSize=3;" edge="1" parent="1">
          <mxGeometry relative="1" as="geometry">
            <mxPoint x="748" y="581.5" as="sourcePoint" />
            <mxPoint x="748" y="566.5" as="targetPoint" />
          </mxGeometry>
        </mxCell>
        <mxCell id="NQQZQObjNg2_o2cvGMOL-64" value="" style="edgeStyle=orthogonalEdgeStyle;rounded=0;orthogonalLoop=1;jettySize=auto;html=1;startArrow=classic;startFill=1;endArrow=none;endFill=0;endSize=6;startSize=3;" edge="1" parent="1">
          <mxGeometry relative="1" as="geometry">
            <mxPoint x="726" y="580.5" as="sourcePoint" />
            <mxPoint x="726" y="565.5" as="targetPoint" />
          </mxGeometry>
        </mxCell>
        <mxCell id="NQQZQObjNg2_o2cvGMOL-65" value="" style="edgeStyle=orthogonalEdgeStyle;rounded=0;orthogonalLoop=1;jettySize=auto;html=1;startArrow=classic;startFill=1;endArrow=none;endFill=0;endSize=6;startSize=3;" edge="1" parent="1">
          <mxGeometry relative="1" as="geometry">
            <mxPoint x="701" y="580.5" as="sourcePoint" />
            <mxPoint x="701" y="565.5" as="targetPoint" />
          </mxGeometry>
        </mxCell>
        <mxCell id="NQQZQObjNg2_o2cvGMOL-66" value="" style="edgeStyle=orthogonalEdgeStyle;rounded=0;orthogonalLoop=1;jettySize=auto;html=1;startArrow=classic;startFill=1;endArrow=none;endFill=0;endSize=6;startSize=3;" edge="1" parent="1">
          <mxGeometry relative="1" as="geometry">
            <mxPoint x="671" y="580.5" as="sourcePoint" />
            <mxPoint x="671" y="565.5" as="targetPoint" />
          </mxGeometry>
        </mxCell>
        <mxCell id="NQQZQObjNg2_o2cvGMOL-67" value="" style="edgeStyle=orthogonalEdgeStyle;rounded=0;orthogonalLoop=1;jettySize=auto;html=1;startArrow=classic;startFill=1;endArrow=none;endFill=0;endSize=6;startSize=3;" edge="1" parent="1">
          <mxGeometry relative="1" as="geometry">
            <mxPoint x="644" y="580.5" as="sourcePoint" />
            <mxPoint x="644" y="565.5" as="targetPoint" />
          </mxGeometry>
        </mxCell>
        <mxCell id="NQQZQObjNg2_o2cvGMOL-68" value="" style="edgeStyle=orthogonalEdgeStyle;rounded=0;orthogonalLoop=1;jettySize=auto;html=1;startArrow=classic;startFill=1;endArrow=none;endFill=0;endSize=3;startSize=3;" edge="1" parent="1">
          <mxGeometry relative="1" as="geometry">
            <mxPoint x="995.9" y="579" as="sourcePoint" />
            <mxPoint x="995.9" y="564" as="targetPoint" />
          </mxGeometry>
        </mxCell>
        <mxCell id="NQQZQObjNg2_o2cvGMOL-70" value="" style="edgeStyle=orthogonalEdgeStyle;rounded=0;orthogonalLoop=1;jettySize=auto;html=1;startArrow=classic;startFill=1;endArrow=none;endFill=0;endSize=3;startSize=3;" edge="1" parent="1">
          <mxGeometry relative="1" as="geometry">
            <mxPoint x="1040" y="579" as="sourcePoint" />
            <mxPoint x="1040" y="564" as="targetPoint" />
            <Array as="points">
              <mxPoint x="1040.1" y="572" />
              <mxPoint x="1040.1" y="572" />
            </Array>
          </mxGeometry>
        </mxCell>
        <mxCell id="NQQZQObjNg2_o2cvGMOL-71" value="" style="edgeStyle=orthogonalEdgeStyle;rounded=0;orthogonalLoop=1;jettySize=auto;html=1;startArrow=classic;startFill=1;endArrow=none;endFill=0;endSize=3;startSize=3;" edge="1" parent="1">
          <mxGeometry relative="1" as="geometry">
            <mxPoint x="1076" y="580" as="sourcePoint" />
            <mxPoint x="1076" y="565" as="targetPoint" />
            <Array as="points">
              <mxPoint x="1076.1" y="573" />
              <mxPoint x="1076.1" y="573" />
            </Array>
          </mxGeometry>
        </mxCell>
        <mxCell id="NQQZQObjNg2_o2cvGMOL-78" value="" style="edgeStyle=orthogonalEdgeStyle;rounded=0;orthogonalLoop=1;jettySize=auto;html=1;endSize=3;jumpSize=4;" edge="1" parent="1">
          <mxGeometry relative="1" as="geometry">
            <mxPoint x="306.91999999999996" y="606.5" as="sourcePoint" />
            <mxPoint x="306.91999999999996" y="596" as="targetPoint" />
          </mxGeometry>
        </mxCell>
        <mxCell id="NQQZQObjNg2_o2cvGMOL-79" value="" style="edgeStyle=orthogonalEdgeStyle;rounded=0;orthogonalLoop=1;jettySize=auto;html=1;endSize=3;jumpSize=4;" edge="1" parent="1">
          <mxGeometry relative="1" as="geometry">
            <mxPoint x="307.16999999999996" y="543.5" as="sourcePoint" />
            <mxPoint x="307.16999999999996" y="534.5" as="targetPoint" />
          </mxGeometry>
        </mxCell>
        <mxCell id="NQQZQObjNg2_o2cvGMOL-81" value="&lt;font face=&quot;Times New Roman&quot;&gt;Linear&amp;amp;CRF&lt;/font&gt;" style="rounded=1;whiteSpace=wrap;html=1;" vertex="1" parent="1">
          <mxGeometry x="205" y="545" width="202" height="19" as="geometry" />
        </mxCell>
        <mxCell id="NQQZQObjNg2_o2cvGMOL-82" value="" style="edgeStyle=orthogonalEdgeStyle;rounded=0;orthogonalLoop=1;jettySize=auto;html=1;endSize=3;jumpSize=4;" edge="1" parent="1">
          <mxGeometry relative="1" as="geometry">
            <mxPoint x="307.16999999999996" y="575.5" as="sourcePoint" />
            <mxPoint x="307.16999999999996" y="565" as="targetPoint" />
          </mxGeometry>
        </mxCell>
      </root>
    </mxGraphModel>
  </diagram>
</mxfile>
